<svg width="177" height="31" viewBox="0 0 177 31" fill="none" xmlns="http://www.w3.org/2000/svg">
<path d="M15.992 0.143998C18.488 0.143998 20.756 0.575998 22.796 1.44C24.86 2.304 26.576 3.48 27.944 4.968C29.336 6.456 30.32 8.124 30.896 9.972H23.696C23.048 8.844 22.052 7.932 20.708 7.236C19.388 6.516 17.864 6.156 16.136 6.156C14.384 6.156 12.8 6.564 11.384 7.38C9.968 8.172 8.852 9.288 8.036 10.728C7.244 12.144 6.848 13.752 6.848 15.552C6.848 17.352 7.244 18.984 8.036 20.448C8.852 21.888 9.968 23.016 11.384 23.832C12.8 24.648 14.384 25.056 16.136 25.056C17.6 25.056 18.932 24.792 20.132 24.264C21.332 23.736 22.304 23.04 23.048 22.176C23.816 21.288 24.32 20.352 24.56 19.368H15.596V13.824H31.544V15.552C31.544 18.48 30.86 21.12 29.492 23.472C28.148 25.8 26.288 27.624 23.912 28.944C21.56 30.288 18.92 30.96 15.992 30.96C13.016 30.96 10.328 30.288 7.928 28.944C5.552 27.624 3.68 25.8 2.312 23.472C0.968 21.12 0.296 18.48 0.296 15.552C0.296 12.624 0.968 9.996 2.312 7.668C3.68 5.316 5.552 3.48 7.928 2.16C10.328 0.815998 13.016 0.143998 15.992 0.143998ZM35.2675 9.144H41.6755V11.16C42.3235 10.296 43.0555 9.66 43.8715 9.252C44.7115 8.844 45.7075 8.64 46.8595 8.64C48.1795 8.64 49.3795 8.904 50.4595 9.432C51.5395 9.936 52.4275 10.68 53.1235 11.664C53.9155 10.656 54.8875 9.9 56.0395 9.396C57.1915 8.892 58.5595 8.64 60.1435 8.64C61.7515 8.64 63.1675 9.024 64.3915 9.792C65.6155 10.536 66.5635 11.616 67.2355 13.032C67.9075 14.448 68.2435 16.116 68.2435 18.036V30.24H61.8355V19.116C61.8355 17.508 61.5355 16.284 60.9355 15.444C60.3355 14.58 59.4475 14.148 58.2715 14.148C57.2395 14.148 56.4355 14.544 55.8595 15.336C55.3075 16.128 55.0075 17.28 54.9595 18.792V30.24H48.5515V19.116C48.5515 17.508 48.2515 16.284 47.6515 15.444C47.0515 14.58 46.1635 14.148 44.9875 14.148C43.9555 14.148 43.1515 14.544 42.5755 15.336C42.0235 16.128 41.7235 17.28 41.6755 18.792V30.24H35.2675V9.144ZM81.7483 30.744C79.7563 30.744 77.9803 30.264 76.4203 29.304C74.8603 28.368 73.6483 27.06 72.7843 25.38C71.9203 23.7 71.4883 21.804 71.4883 19.692C71.4883 17.58 71.9203 15.684 72.7843 14.004C73.6483 12.324 74.8603 11.016 76.4203 10.08C77.9803 9.12 79.7563 8.64 81.7483 8.64C84.4603 8.64 86.4763 9.528 87.7963 11.304V9.144H94.2043V30.24H87.7963V28.08C86.4763 29.856 84.4603 30.744 81.7483 30.744ZM82.7563 25.272C84.3163 25.272 85.5643 24.756 86.5003 23.724C87.4363 22.668 87.9043 21.324 87.9043 19.692C87.9043 18.06 87.4363 16.728 86.5003 15.696C85.5643 14.64 84.3163 14.112 82.7563 14.112C81.2443 14.112 80.0323 14.64 79.1203 15.696C78.2083 16.728 77.7523 18.06 77.7523 19.692C77.7523 21.324 78.2083 22.668 79.1203 23.724C80.0323 24.756 81.2443 25.272 82.7563 25.272ZM99.0409 9.144H105.449V11.304C106.769 9.528 108.737 8.64 111.353 8.64C112.505 8.64 113.429 8.76 114.125 9L114.197 15.012C113.285 14.532 112.193 14.292 110.921 14.292C109.217 14.292 107.873 14.748 106.889 15.66C105.929 16.572 105.449 17.832 105.449 19.44V30.24H99.0409V9.144ZM126.216 22.5L123.66 25.38V30.24H117.252V-2.14577e-06H123.66V17.748L131.112 9.144H138.24L130.14 18.144L138.672 30.24H131.364L126.216 22.5ZM149.652 30.744C147.54 30.744 145.644 30.264 143.964 29.304C142.308 28.368 141.012 27.06 140.076 25.38C139.14 23.7 138.672 21.804 138.672 19.692C138.672 17.58 139.14 15.684 140.076 14.004C141.012 12.324 142.308 11.016 143.964 10.08C145.644 9.12 147.54 8.64 149.652 8.64C151.764 8.64 153.648 9.12 155.304 10.08C156.984 11.016 158.292 12.324 159.228 14.004C160.164 15.684 160.632 17.58 160.632 19.692C160.632 20.388 160.584 21.072 160.488 21.744H145.044C145.284 22.968 145.812 23.916 146.628 24.588C147.444 25.26 148.452 25.596 149.652 25.596C150.564 25.596 151.368 25.452 152.064 25.164C152.784 24.852 153.276 24.444 153.54 23.94H159.984C159.624 25.284 158.952 26.46 157.968 27.468C156.984 28.5 155.772 29.304 154.332 29.88C152.892 30.456 151.332 30.744 149.652 30.744ZM154.368 17.604C154.104 16.332 153.564 15.372 152.748 14.724C151.932 14.052 150.9 13.716 149.652 13.716C148.404 13.716 147.384 14.052 146.592 14.724C145.8 15.372 145.272 16.332 145.008 17.604H154.368ZM176.863 14.652H172.687V30.24H166.279V14.652H162.103V9.144H166.279V2.88H172.687V9.144H176.863V14.652Z" fill="white"/>
</svg>
